<?xml version="1.0" encoding="UTF-8" standalone="no"?>
<!-- Created with Inkscape (http://www.inkscape.org/) -->

<svg
   version="1.1"
   id="svg1"
   width="266.66666"
   height="266.66666"
   viewBox="0 0 266.66666 266.66666"
   xmlns="http://www.w3.org/2000/svg"
   xmlns:svg="http://www.w3.org/2000/svg">
  <defs
     id="defs1" />
  <g
     id="g1">
    <path
       style="fill:#f5deb3;fill-opacity:1;stroke:none"
       d="m 148.01051,31.994542 -22.66666,-6.666665 c 0,23.339195 -4.31099,51.576765 -26.666668,64.863155 -11.110034,6.60291 -24.751984,8.21209 -37.333334,9.80351 v -1.33333 c 20.87911,-3.08346 44.459942,-14.4961 50.666662,-36 l -10.66666,1.33333 c 9.0623,-10.09647 13.18698,-23.2787 17.33333,-36 -28.276342,2.46871 -72.216152,17.11294 -90.146092,40 -6.84218,8.73385 -6.56611,20.75832 -11.51646,30.66667 C 10.197478,112.30603 1.2716084,127.09937 0.13088838,142.6612 -1.1595116,160.26496 7.452758,175.09777 10.091788,191.99454 c 2.05579,13.16243 0.60782,28.30924 -1.81996,41.33334 -1.25287,6.72116 -3.09874,15.16283 4.02367,19.39094 5.92126,3.51505 21.41127,3.9071 24.6646,-3.53601 3.2113,-7.34697 -8.25969,-13.11388 -7.15123,-21.18827 2.06593,-15.04883 21.7286,-23.63255 31.48251,-33.38581 4.09128,-4.091 7.79352,-10.84377 13.39095,-12.99794 6.25974,-2.40906 19.857574,2.25525 26.661522,3.15124 22.88171,3.01325 46.88619,-0.05 63.59979,19.23765 14.09021,16.26022 22.39015,58.17299 50.98868,46.61831 3.91669,-1.58246 5.89826,-5.09566 4.3961,-9.23251 -1.87897,-5.17459 -7.85516,-6.45394 -10.68005,-10.90123 -5.77847,-9.09714 -2.60319,-20.79979 -0.35391,-30.4887 3.2991,-14.21091 21.40705,-18.83445 30.09774,-29.33536 16.92114,-20.44572 22.53843,-45.58643 21.93209,-71.998978 -0.16073,-7.00096 -2.94755,-28.93105 -13.36729,-27.97223 -5.65122,0.52002 -10.85258,6.95843 -14.61316,10.63889 l 25.33333,-34.66666 -6.66666,-6.66667 8,2.66667 c -1.54198,-16.934985 -17.06541,-5.07589 -27.44137,-12.03601 -7.63798,-5.123525 -6.77677,-18.336065 -15.24587,-24.4320946 -21.38181,-15.39054 -64.59579,-0.33663 -69.31276,25.8014346 m 34.66667,16 h -1.33334 c 1.16166,-13.22225 6.13296,-34.830055 -14.66666,-21.333335 1.34098,-12.00623 15.8199,-18.3463696 21.7963,-5.32717 4.73159,10.307455 -0.92826,17.881755 -5.7963,26.660505 m 30.893,-13.55761 c 6.42804,-1.54173 6.98804,8.41949 1.05453,9.88887 -6.74113,1.66937 -6.64964,-8.54692 -1.05453,-9.88887 m 38.44033,4.22428 -1.33334,1.33333 1.33334,-1.33333 M 226.67717,238.66121 c 4.34416,-1.7463 5.85521,-4.43516 5.02265,-9.31791 -0.87919,-5.15622 -6.22125,-7.28106 -7.1461,-12.15433 -1.73321,-9.13283 4.88635,-21.34102 6.12345,-30.52777 -13.35611,4.8904 -23.20184,25.44413 -16.34362,39.60083 2.28839,4.72368 9.16733,7.63364 12.34362,12.39918 M 84.010518,190.6612 c -18.05564,-3.13881 -47.09219,30.3549 -34.42799,48.75516 3.77194,5.48035 22.19044,5.09217 24.0926,-2.21297 1.11796,-4.29348 -3.8825,-6.46023 -5.6142,-9.64197 -2.47479,-4.54707 0.17314,-10.25904 2.58642,-14.23355 4.54561,-7.48633 11.31139,-14.01253 13.36317,-22.66667 z"
       id="path1" />
  </g>
</svg>
